# xmcd
#
# Track frame offsets: 
#        150
#        12709
#        22804
#        35141
#        49687
#        64064
#        77211
#        90398
#        105428
#        119426
#        131347
#        143269
#        152868
#        167098
#        180922
#        195771
#        210814
#        223524
#        236698
#        247872
#
# Disc length: 3503 seconds
#
# Revision: 0
# Processed by: cddbd v1.5.2PL0 Copyright (c) Steve Scherf et al.
# Submitted via: ExactAudioCopy v1.0b4
#
DISCID=f40dad14
DTITLE=Various Artist - Stars Of American Songbook CD1
DYEAR=1900
DGENRE=Blues
TTITLE0=Andy Williams - Moon River
TTITLE1=Dean Martin - You're Nobody Til Somebody Loves You
TTITLE2=Frank Sinatra - Sunday Night Is The Loneliest Night Of The Wee
TTITLE2=k
TTITLE3=Doris Day - Sentimental Journey
TTITLE4=Nat King Cole - I'm In the Mood For Love
TTITLE5=Bobby Darin - Beyond The Sea
TTITLE6=Dinah Shore - You'd Be So Nice To Come Home To
TTITLE7=Sammy Davis Jr. - That Old Black Magic Called Love
TTITLE8=Eartha Kitt - Let's Do It(Let's Fall In Love)
TTITLE9=Neil Sedaka - Calendar Girl
TTITLE10=The Platters - The Great Pretender
TTITLE11=Dinah Washington - Sptember In The Rain
TTITLE12=Mel Tormé - Blue Moon
TTITLE13=Paul Anka - (All Of A Sudden) My Heart Sings
TTITLE14=Peggy Lee - The Way You Look Tonight
TTITLE15=Sarah Vaughan - The Nearness Of You
TTITLE16=Judy Garland - Somewhere Over The Rainbow
TTITLE17=Gene Kelly - Singin' In The Rain
TTITLE18=Fred Astaire - Let's Face The Music And Dance
TTITLE19=Frank Sinatra - Someone To Watch Over Me
EXTD=
EXTT0=
EXTT1=
EXTT2=
EXTT3=
EXTT4=
EXTT5=
EXTT6=
EXTT7=
EXTT8=
EXTT9=
EXTT10=
EXTT11=
EXTT12=
EXTT13=
EXTT14=
EXTT15=
EXTT16=
EXTT17=
EXTT18=
EXTT19=
PLAYORDER=
